
<svg viewBox="0 0 128 128" width="128" height="128" aria-hidden="true">
  <defs>
    <linearGradient id="bg" x1="18" y1="8" x2="114" y2="126" gradientUnits="userSpaceOnUse">
      <stop offset="0" stop-color="#0c3540"/>
      <stop offset="1" stop-color="#102328"/>
    </linearGradient>
    <linearGradient id="paper" x1="42" y1="30" x2="86" y2="104" gradientUnits="userSpaceOnUse">
      <stop offset="0" stop-color="#fff9ed"/>
      <stop offset="1" stop-color="#ece3cc"/>
    </linearGradient>
  </defs>
  <rect x="0" y="0" width="128" height="128" rx="28" fill="url(#bg)"/>
  <circle cx="100" cy="24" r="18" fill="#2f6e72" opacity=".42"/>
  <rect x="36" y="34" width="58" height="72" rx="9" fill="url(#paper)" stroke="#d2c6a6" stroke-width="2"/>
  <path d="M76 34h18v18z" fill="#d8ccb0"/>
  <path d="M49 65h31" stroke="#31515a" stroke-width="5" stroke-linecap="round"/>
  <path d="M49 79h25" stroke="#31515a" stroke-width="5" stroke-linecap="round"/>
  <path d="M49 93h17" stroke="#31515a" stroke-width="5" stroke-linecap="round"/>
  <path d="M28 47c12 9 60 10 78 0 5-3 5 8 1 11-16 11-67 11-82 0-4-3-3-14 3-11z" fill="#14191e"/>
  <path d="M43 44c2-18 13-26 31-24 13 1 22 8 25 24-15 5-40 7-56 0z" fill="#202730"/>
  <path d="M45 39c15 5 37 5 52 0l3 8c-18 7-41 7-59 0z" fill="#c6a554"/>
  <circle cx="87" cy="82" r="12" fill="none" stroke="#75d5bd" stroke-width="6"/>
  <path d="M96 92l13 13" stroke="#75d5bd" stroke-width="7" stroke-linecap="round"/>
</svg>